<svg width="386" height="307" viewBox="0 0 386 307" fill="none" xmlns="http://www.w3.org/2000/svg">
<g clip-path="url(#clip0)">
<path d="M249.38 196.894C248.868 197.464 248.184 197.864 247.557 198.321C246.817 198.777 246.076 199.234 245.336 199.747C242.431 201.631 239.469 203.4 236.393 205.056C233.317 206.711 230.184 208.252 226.937 209.451C223.804 210.649 220.557 211.505 217.253 212.19C211.5 213.332 205.12 214.074 200.449 218.012C199.766 218.583 198.455 218.126 198.569 217.099C198.968 214.131 199.481 211.163 200.221 208.252C200.905 205.626 201.759 203.115 202.671 200.604C203.069 199.519 203.525 198.378 203.639 197.179C203.81 195.866 203.525 194.553 203.183 193.241C202.5 190.729 201.645 188.218 200.677 185.821C200.221 184.622 199.709 183.423 199.196 182.225C198.854 181.426 198.512 180.57 198.228 179.771C193.727 182.282 188.715 183.709 183.645 184.165C182.791 184.337 181.936 184.394 181.139 184.051C180.17 183.595 179.601 182.796 179.145 181.882C178.234 180.056 177.493 178.115 176.753 176.232C175.328 172.293 174.189 168.241 173.449 164.131C172.708 159.965 172.48 155.798 172.366 151.575C172.366 150.775 172.252 150.033 171.797 149.463C171.227 148.778 170.373 148.264 169.689 147.636C168.265 146.323 167.069 144.782 166.157 143.013C165.93 142.613 165.987 141.929 166.385 141.643C168.55 140.045 170.771 138.447 172.936 136.792C173.904 136.107 174.816 135.422 175.784 134.68C176.696 133.995 177.721 133.424 178.461 132.625C179.088 131.94 179.259 130.97 179.43 130.057C179.658 128.972 179.886 127.888 180.17 126.803C180.341 126.175 180.512 125.548 180.683 124.92C180.968 121.324 182.221 117.785 184.329 114.817C185.297 112.648 186.778 110.765 188.601 109.281C190.025 107.797 191.62 106.598 193.557 105.799C194.126 105.571 194.639 105.856 194.867 106.256C195.721 106.084 196.576 105.97 197.487 105.97C199.082 105.97 200.62 106.427 202.158 106.484C202.899 106.541 203.582 106.427 204.266 106.027C204.835 105.685 205.291 105.228 205.804 104.829C206.43 104.315 207.114 103.915 207.854 103.687C208.766 103.402 209.791 103.573 210.702 103.858C212.24 104.315 213.778 105.057 215.259 105.742C221.298 108.539 226.994 112.192 231.95 116.644C234.399 118.87 236.848 121.21 238.728 123.949C240.722 126.86 241.576 130.285 241.918 133.767C242.545 140.901 241.292 147.922 240.38 154.999C239.924 158.538 239.583 162.077 239.64 165.615C239.697 169.211 240.38 172.693 241.292 176.175C241.747 177.887 242.203 179.656 242.545 181.426C242.716 182.282 242.83 183.138 243 183.994C243.171 184.736 243.741 184.965 244.368 185.307C246.988 186.791 248.982 189.359 249.779 192.27C250.406 193.869 250.52 195.581 249.38 196.894Z" fill="white"/>
<path d="M191.273 127.351C189.777 126.359 187.801 126.028 186.198 126.91C185.931 127.075 185.824 127.406 185.931 127.681C186.038 127.957 186.359 128.177 186.626 128.067C187.961 127.571 189.297 127.846 190.418 128.618C190.739 128.838 190.953 129.003 191.166 129.224C191.327 129.389 191.433 129.499 191.54 129.665C191.594 129.72 191.647 129.775 191.647 129.83C191.914 130.271 192.074 130.601 192.128 130.822C192.235 131.207 192.235 131.593 192.341 131.979C192.448 132.309 192.662 132.53 193.036 132.585C193.356 132.585 193.677 132.364 193.784 132.089C194.051 131.207 193.624 130.05 193.196 129.334C192.662 128.563 192.021 127.902 191.273 127.351Z" fill="black"/>
<path d="M188.068 133.742C188.894 133.742 189.564 132.484 189.564 130.932C189.564 129.38 188.894 128.122 188.068 128.122C187.242 128.122 186.572 129.38 186.572 130.932C186.572 132.484 187.242 133.742 188.068 133.742Z" fill="black"/>
<path d="M189.03 134.458C188.816 134.293 188.762 134.238 188.656 134.238C188.549 134.183 188.442 134.183 188.335 134.128C188.228 134.073 188.121 134.073 188.015 134.018C187.694 133.852 187.587 133.797 187.48 133.742C186.946 133.191 186.839 133.081 186.679 132.971C186.359 132.806 185.878 132.971 185.931 133.357C185.931 133.742 186.198 134.073 186.412 134.348C186.626 134.569 186.839 134.789 187.106 134.899C187.374 135.065 187.641 135.175 187.961 135.23C188.175 135.285 188.389 135.285 188.602 135.23C189.136 134.954 189.19 134.844 189.19 134.679C189.243 134.679 189.19 134.514 189.03 134.458Z" fill="black"/>
<path d="M193.517 118.866C192.715 117.874 191.754 117.048 190.579 116.607C189.991 116.387 189.403 116.276 188.816 116.331C188.495 116.331 188.175 116.387 187.908 116.497C187.747 116.552 187.641 116.552 187.587 116.607C186.572 117.103 185.344 118.315 185.611 119.637C185.771 120.298 186.252 120.739 186.839 121.015C187.374 121.29 188.015 121.29 188.602 121.455C189.831 121.786 190.792 122.502 191.807 123.219C193.036 124.1 194.211 124.982 195.44 125.918C195.707 126.139 196.188 126.084 196.455 125.863C197.523 124.761 196.562 123.329 195.921 122.337C195.119 121.07 194.371 119.913 193.517 118.866Z" fill="black"/>
<path d="M209.062 152.86C209.756 151.923 210.45 150.987 211.305 150.105C211.305 150.932 211.305 151.758 211.198 152.64C211.091 153.466 210.771 154.293 210.824 155.174C210.824 155.505 211.145 155.67 211.412 155.45C212.213 154.844 212.427 153.687 212.534 152.75C212.587 152.309 212.587 151.813 212.587 151.373C212.534 150.822 212.427 150.381 212.267 149.83C212.213 149.665 212.053 149.554 211.893 149.554C212.106 149.389 212.32 149.224 212.534 149.058C213.175 148.618 213.869 148.232 214.671 148.012C215.044 147.901 215.418 147.846 215.792 147.846C216.22 147.846 216.647 147.957 217.074 147.901C217.609 147.791 217.662 147.075 217.288 146.744C216.914 146.469 216.326 146.469 215.846 146.469C215.365 146.469 214.938 146.524 214.457 146.634C213.549 146.855 212.694 147.295 211.946 147.791C210.344 148.948 209.168 150.546 207.993 152.144C207.459 152.86 208.527 153.576 209.062 152.86Z" fill="black"/>
<path d="M324.66 301.621C324.66 301.456 324.607 301.29 324.554 301.125C324.767 288.889 324.767 277.6 324.767 265.754C324.767 259.694 323.592 253.412 323.806 247.351C324.019 241.4 324.393 235.395 323.913 229.445C323.485 224.155 322.363 218.866 319.906 214.183C317.502 209.555 313.763 205.973 309.596 202.998C307.513 201.511 305.323 200.133 303.186 198.811C300.889 197.378 298.538 196.056 295.974 195.23C290.793 193.522 285.184 193.962 279.842 194.348C271.455 194.899 262.961 195.946 254.575 195.009C254.521 194.899 254.414 194.789 254.308 194.734C253.506 194.238 252.705 193.962 251.904 193.466C251.263 193.081 250.568 192.585 249.981 192.089C249.767 191.593 249.553 191.152 249.34 190.657C248.859 189.665 248.378 188.728 247.844 187.792C247.31 186.855 246.722 185.973 246.081 185.037C245.76 184.596 245.44 184.155 245.119 183.714C244.799 183.274 244.425 182.723 243.944 182.447C243.891 182.392 243.784 182.392 243.677 182.337C243.517 182.227 243.25 182.227 243.09 182.227C242.929 182.227 242.769 182.282 242.609 182.282C242.342 181.896 242.181 181.455 242.021 181.015C241.647 180.023 241.273 179.031 240.899 178.095C240.739 177.764 240.632 177.378 240.472 177.048C241.006 176.552 241.06 176.001 241.166 175.505C241.273 174.899 241.434 174.293 241.647 173.742C242.288 173.136 242.876 172.42 243.41 171.648C244.318 172.254 245.333 172.254 246.241 171.924C247.096 171.593 247.79 170.932 248.378 170.161C251.209 170.106 254.147 169.004 255.963 166.8C256.872 165.753 257.513 164.375 257.513 162.998C260.344 163.659 263.389 162.888 265.686 160.96C268.517 158.535 269.746 154.293 268.891 150.601C268.677 149.665 268.357 148.508 267.662 147.736C267.769 147.571 267.823 147.351 267.929 147.185C268.731 146.855 269.479 146.414 270.226 145.863C271.776 144.761 273.111 143.218 274.073 141.566C275.996 138.315 276.37 134.183 274.446 130.822C273.752 129.665 272.844 128.673 271.776 127.957C273.271 126.414 273.699 123.824 273.271 121.676C272.684 118.535 270.547 115.56 267.609 114.348C267.449 114.293 267.288 114.238 267.128 114.183C267.342 113.521 267.502 112.805 267.555 112.089C267.662 109.885 266.968 107.791 266.006 105.863C265.472 104.816 264.778 103.824 264.137 102.833C263.549 101.951 262.961 101.125 262.267 100.298C260.878 98.7004 259.222 97.3781 257.139 96.9373C256.818 96.8822 256.444 96.8271 256.124 96.8271C256.07 96.7169 256.017 96.5516 255.91 96.4414C255.162 95.0089 254.414 93.5764 253.56 92.199C252.705 90.8216 251.743 89.5544 250.568 88.4524C249.393 87.3505 248.057 86.469 246.615 85.7527C243.784 84.4304 240.686 83.9345 237.587 83.8243C235.825 83.7141 234.062 83.7692 232.299 83.8794C230.696 83.9896 229.147 84.2651 227.705 84.9814C227.491 84.5957 227.224 84.21 226.904 83.8794C226.156 83.1632 225.141 82.6673 224.072 82.6673C222.737 82.6673 221.508 83.3285 220.76 84.4304C217.769 82.5571 214.19 81.6205 210.664 81.7858C206.07 82.0061 201.743 84.1549 198.591 87.626C197.042 89.3891 195.814 91.3726 195.012 93.5764C193.303 93.4662 191.54 93.4662 189.938 93.9621C188.388 94.458 186.893 95.4497 185.985 96.9373C184.97 98.6453 185.13 100.574 185.344 102.502C185.557 104.375 185.824 106.249 187 107.791C187.534 108.452 188.228 109.003 189.029 109.279C188.335 109.995 187.694 110.767 187.106 111.593C184.97 114.403 183.314 117.599 182.299 120.959C181.764 122.667 181.391 124.486 181.177 126.249C180.963 128.067 181.123 130.105 179.895 131.593C179.307 132.309 178.506 132.915 177.758 133.466C176.85 134.127 175.942 134.844 175.034 135.505C173.217 136.827 171.401 138.205 169.585 139.527C169.104 139.858 168.677 140.243 168.517 140.849C168.356 141.455 168.517 142.061 168.837 142.557C169.425 143.549 170.066 144.486 170.76 145.422C171.989 147.075 173.431 148.728 175.034 149.995C175.034 150.216 175.034 150.436 174.98 150.601C174.98 150.712 174.98 150.822 174.98 150.932C174.499 154.623 174.66 158.26 175.034 161.786C175.408 165.257 175.995 168.728 176.903 172.144C177.331 173.852 177.865 175.56 178.399 177.268C178.88 178.701 179.361 180.188 180.162 181.455C180.91 182.612 181.925 183.659 183.26 183.99C184.168 184.21 185.076 184.1 185.985 183.935C186.839 183.769 187.694 183.604 188.549 183.384C192.128 182.557 195.6 181.455 198.965 180.078C200.728 184.927 202.544 189.83 204.254 194.734C203.72 195.285 203.292 195.836 202.972 196.552C202.544 197.489 202.277 198.48 201.957 199.417C201.156 201.731 200.408 204.045 199.66 206.414C199.072 208.122 198.485 209.83 198.004 211.538C190.632 212.916 183.42 215.285 176.369 217.984C167.662 221.29 158.42 224.706 150.514 230.051C143.089 235.009 138.602 241.4 134.595 248.783C133.527 250.712 132.512 252.75 131.497 254.844C129.254 259.362 127.117 263.99 125.087 268.618C121.027 277.874 117.501 287.351 114.403 296.993C114.029 298.205 113.655 299.362 113.281 300.574C113.174 300.85 113.228 301.07 113.335 301.29C113.121 302.117 113.281 303.109 113.442 303.88C113.495 304.211 113.602 304.486 113.709 304.817C113.922 305.533 114.243 306.194 114.617 306.8H116.38C126.689 306.8 137.053 306.8 147.363 306.8C151.743 306.8 156.07 306.8 160.45 306.8C176.529 306.8 192.662 306.8 208.741 306.855C247.31 306.965 320.315 306.909 321.819 306.909C323.324 306.909 324.398 306.467 324.613 305.803C324.828 305.14 324.767 304.762 324.767 304.651C324.714 303.77 324.714 302.723 324.66 301.621ZM203.559 187.957C202.438 184.927 201.316 181.896 200.194 178.811C200.034 178.37 199.446 178.315 199.072 178.425C195.974 179.692 192.822 180.739 189.617 181.566C188.762 181.786 187.961 181.951 187.106 182.172C186.359 182.337 185.557 182.557 184.756 182.612C183.42 182.723 182.459 182.117 181.764 181.07C181.017 180.023 180.589 178.756 180.162 177.488C179.574 175.891 179.094 174.238 178.666 172.585C177.811 169.334 177.17 166.083 176.743 162.778C177.544 162.227 178.346 161.676 179.147 161.125C179.628 160.794 180.162 160.409 180.643 160.078C180.91 159.913 181.177 159.692 181.444 159.527C181.711 159.362 182.032 159.141 182.245 158.921C182.726 158.37 182.192 157.599 181.551 157.874C181.23 157.984 180.963 158.26 180.696 158.48C180.429 158.645 180.162 158.866 179.895 159.086C179.414 159.472 178.933 159.802 178.399 160.188C177.758 160.629 177.17 161.125 176.529 161.621C176.209 158.59 175.995 155.505 176.155 152.475C176.262 150.712 176.69 150.105 175.835 148.783C174.98 147.406 173.378 146.359 172.363 145.037C171.775 144.32 171.241 143.549 170.76 142.778C170.653 142.612 170.493 142.392 170.386 142.172C170.279 142.006 170.119 141.786 170.066 141.621C170.012 141.455 170.493 141.18 170.6 141.125C172.363 139.802 174.126 138.48 175.888 137.213L178.559 135.229C179.307 134.678 180.055 134.127 180.696 133.466C181.391 132.75 181.925 131.924 182.192 130.987C182.512 130.05 182.566 129.004 182.619 128.012C182.779 126.304 183.047 124.596 183.474 122.943C184.329 119.692 185.771 116.607 187.641 113.852C188.709 112.309 189.884 110.877 191.22 109.61C191.754 109.114 192.288 108.618 192.876 108.122C193.41 108.232 193.944 108.342 194.478 108.452C195.547 108.728 196.562 108.948 197.576 109.279C198.591 109.554 199.606 109.885 200.675 110.271C201.209 110.436 201.69 110.601 202.224 110.711C202.331 110.711 202.438 110.767 202.598 110.767C202.491 110.877 202.384 110.987 202.331 111.097C201.53 112.144 201.262 113.632 201.262 114.954C201.209 117.709 202.171 120.408 204.307 122.061C204.735 122.392 205.269 122.723 205.803 122.943C205.269 123.329 204.788 123.714 204.307 124.21C203.292 125.202 202.438 126.359 201.957 127.681C200.995 130.546 202.224 133.411 204.414 135.174C205.055 135.67 205.696 136.056 206.444 136.331C206.658 136.386 206.871 136.442 207.032 136.497C206.604 136.497 206.177 136.662 205.803 136.772C205.162 136.993 204.574 137.323 204.04 137.764C203.025 138.535 202.171 139.582 201.53 140.684C200.782 141.951 200.034 143.549 200.515 145.037C200.782 145.863 201.369 146.579 202.117 146.965C202.064 147.626 202.277 148.342 202.758 148.838C203.346 149.444 204.2 149.61 205.002 149.389C205.376 149.279 205.75 149.114 206.07 148.893C206.284 148.948 206.497 148.838 206.604 148.563C206.658 148.453 206.711 148.342 206.711 148.232C206.871 148.067 206.978 147.902 207.032 147.626C207.94 145.698 209.275 144.1 210.824 142.998C211.786 142.337 212.854 141.841 213.976 141.51C214.564 141.345 215.205 141.18 215.792 141.29C216.38 141.4 216.754 141.896 217.128 142.337C217.929 143.494 218.677 144.761 219.265 146.028C219.852 147.351 220.226 148.783 220.119 150.271C220.012 151.813 219.585 153.246 218.998 154.679C218.677 155.45 218.303 156.221 217.822 156.993C217.662 157.158 217.502 157.268 217.342 157.433C215.045 159.417 212.587 160.023 209.703 159.362C209.489 159.307 209.275 159.252 209.062 159.252C208.848 159.252 208.634 159.307 208.421 159.362C208.1 159.472 207.886 159.913 208.153 160.188C208.314 160.298 208.421 160.464 208.581 160.574C208.741 160.684 208.955 160.684 209.168 160.739C209.596 160.849 209.97 160.904 210.397 161.015C211.092 161.125 211.839 161.235 212.587 161.29C212.427 162.061 212.427 162.888 212.641 163.659C213.228 165.698 214.991 166.965 216.861 167.681C217.128 167.791 217.395 167.847 217.662 167.902C216.006 169.059 214.51 170.381 214.19 172.585C213.762 175.615 216.113 178.26 218.677 179.362C220.119 179.968 221.615 180.243 223.164 180.464C223.859 180.794 224.713 180.794 225.461 180.629C225.835 180.519 226.209 180.409 226.583 180.188C226.743 180.354 226.904 180.519 227.171 180.684C228.132 181.235 229.201 180.739 230.162 180.464C230.322 180.409 230.483 180.354 230.643 180.298C232.619 180.298 234.649 179.747 236.305 178.646C237.267 178.37 238.228 178.095 239.19 177.819C239.297 178.039 239.35 178.315 239.457 178.535C239.778 179.472 240.151 180.409 240.472 181.4C240.632 181.841 240.792 182.282 240.953 182.723C234.008 183.549 227.171 185.202 220.6 187.571C216.914 188.893 213.335 190.436 209.863 192.199C208.474 192.916 207.085 193.577 205.75 194.403C205.055 192.034 204.307 189.995 203.559 187.957ZM200.835 208.067C201.529 206.028 202.224 203.99 202.918 201.951C203.239 200.96 203.613 199.968 203.933 198.976C204.2 198.26 204.361 197.433 204.841 196.827C204.895 196.772 204.948 196.662 205.055 196.607C205.429 196.221 205.91 195.946 206.337 195.725C206.658 195.56 206.925 195.395 207.245 195.23C208.047 194.789 208.901 194.348 209.703 193.907C216.433 190.381 223.538 187.681 230.857 185.918C233.1 185.367 235.29 184.927 237.587 184.596C238.923 184.376 242.128 183.274 243.196 184.541C243.731 184.927 244.104 185.477 244.478 186.084C245.28 187.406 247.363 189.5 247.47 191.097C245.76 191.538 243.944 191.593 242.181 191.924C240.258 192.254 238.335 192.75 236.466 193.246C232.673 194.293 228.933 195.615 225.248 197.048C221.882 198.37 218.463 199.692 215.151 201.125C213.709 201.731 212.213 202.392 210.824 203.108C209.275 203.88 207.726 204.706 206.23 205.643C205.696 205.973 205.162 206.304 204.681 206.69C203.613 207.406 202.651 208.177 201.69 209.004C201.262 209.389 200.782 209.83 200.354 210.216C200.354 209.444 200.621 208.728 200.835 208.067Z" fill="black"/>
<path d="M77.2407 224.105C76.8419 224.334 76.4432 224.505 76.0444 224.733C75.7596 224.847 75.5318 224.905 75.3039 224.848C75.133 224.22 74.9621 223.535 74.7913 222.907C74.8482 222.85 74.9052 222.793 75.0191 222.736C75.5887 222.45 76.1014 222.165 76.671 221.879C76.8419 222.679 77.0128 223.421 77.2407 224.105Z" fill="black"/>
<path d="M111.475 207.896C110.564 205.841 108.399 204.643 107.146 202.816C106.349 201.618 105.95 200.191 105.551 198.821C105.039 197.28 104.583 195.739 104.184 194.141C103.273 190.773 102.589 187.348 102.02 183.867C102.19 182.668 102.361 181.527 102.532 180.328C102.817 178.444 103.159 176.504 103.501 174.62C104.013 171.766 104.64 168.855 105.323 166.059C108.171 162.577 109.026 157.897 108.058 153.73C107.602 151.618 106.634 149.621 105.266 147.908C103.842 146.139 101.963 144.826 100.026 143.742C99.1714 143.285 98.3169 142.885 97.4625 142.486C97.3485 142.372 97.1777 142.258 97.0637 142.086C96.1523 141.287 95.184 140.602 94.1017 140.032C93.0194 139.461 91.8801 138.947 90.7409 138.548C90.1712 138.376 89.6016 138.205 89.032 138.034C88.4623 137.92 87.7218 137.691 87.2091 138.034C86.8104 137.806 86.4117 137.52 86.1268 137.235C86.0129 137.121 85.7281 136.892 85.6142 136.721C85.5572 136.607 85.4433 136.55 85.3863 136.436C85.3294 136.379 85.2724 136.322 85.2724 136.265C84.5888 135.123 84.4749 133.981 84.418 132.84C84.304 130.614 83.9623 127.817 81.7977 126.561C79.9749 125.477 78.0381 126.219 76.4432 127.303C76.0444 127.589 75.6457 127.874 75.2469 128.16C75.076 128.274 74.9052 128.388 74.7343 128.502C74.5064 128.673 74.4495 128.73 74.3355 128.787C73.9937 129.016 73.652 129.187 73.3102 129.358C72.7975 129.529 72.6266 129.529 72.4557 129.587C69.3228 129.187 66.2468 128.103 63.5695 126.447C62.1455 125.591 60.6644 124.05 58.8986 124.906C58.1581 125.249 57.6454 125.877 57.1897 126.504C56.677 127.132 56.1644 127.817 55.6517 128.445C55.3669 128.445 55.0821 128.502 54.8542 128.73C53.601 129.701 52.8035 131.013 52.3478 132.44C52.0061 132.954 51.7212 133.411 51.3795 133.924C51.0377 134.438 51.2086 135.123 51.7213 135.465C51.8921 135.922 51.9491 136.265 51.9491 136.607C52.2339 139.404 53.601 141.915 55.0821 144.312C54.7403 144.541 54.4555 144.883 54.2846 145.169C53.8858 145.796 53.601 146.538 53.3162 147.223C53.0314 147.908 52.6896 148.65 52.4618 149.335C51.8921 150.819 51.4934 152.36 51.3225 153.958C51.1516 155.499 51.2086 157.041 51.3795 158.582C51.6643 161.607 52.3478 164.575 52.3478 167.6C52.3478 169.141 52.0061 170.568 51.7213 172.052C51.3795 173.764 51.4364 175.362 51.8921 177.017C52.2339 178.387 52.6896 179.757 53.2023 181.07C53.658 182.326 54.1137 183.524 54.7972 184.666C55.4808 185.807 56.2783 186.892 57.2467 187.748C58.3289 188.661 59.6391 189.289 61.0062 189.803C62.3733 190.259 63.7974 190.545 65.1645 191.115C66.3038 191.572 67.3861 192.143 68.4114 192.771C70.462 194.141 72.2279 195.91 73.7089 197.908C75.2469 199.905 76.4432 202.131 77.4115 204.471C77.9812 205.841 78.5508 207.268 78.7786 208.752C79.0065 210.179 78.8356 211.606 78.4369 212.976C77.7533 215.544 76.8419 218.398 78.3229 220.853C79.0634 222.051 80.1457 222.736 81.5698 222.907C82.9939 223.078 84.5889 222.907 86.0129 222.679C91.7092 221.823 96.8359 218.969 102.076 216.686C103.387 216.115 104.697 215.601 106.064 215.145C107.203 214.745 108.285 214.403 109.368 213.832C110.393 213.261 111.361 212.462 111.817 211.321C112.045 210.236 111.988 208.981 111.475 207.896Z" fill="white"/>
<path d="M161.432 307.152C156.761 307.152 152.147 307.152 147.476 307.152C136.482 307.152 125.431 307.152 114.437 307.152H112.558C107.431 307.152 102.304 307.209 97.1777 307.209C97.0068 306.524 96.7789 305.782 96.6081 305.097C96.2093 303.67 95.8675 302.301 95.4688 300.874C93.7599 294.595 92.051 288.26 90.3421 281.981C86.9244 269.367 83.5635 256.753 80.2597 244.139C78.5508 237.747 76.8989 231.297 75.2469 224.904C75.4748 224.961 75.7596 224.961 75.9875 224.79C76.3862 224.562 76.7849 224.391 77.1837 224.162C77.0128 223.42 76.7849 222.678 76.6141 221.936C77.0128 221.708 77.4115 221.537 77.8672 221.308C78.3229 221.08 78.7787 220.852 79.1774 220.624C80.5445 219.939 81.8547 219.254 83.2218 218.569C91.5384 214.345 100.026 210.35 108.912 207.382C109.083 207.325 109.254 207.268 109.368 207.21C109.539 207.153 109.71 207.096 109.88 207.039C110.507 206.811 111.134 206.64 111.76 206.468C112.387 206.297 113.013 206.069 113.64 205.898C113.982 205.784 114.437 206.012 114.608 206.354C115.007 207.268 115.463 208.124 115.918 208.98C119.336 216 122.697 223.078 126.001 230.155C128.678 235.806 131.298 241.457 133.919 247.107C134.602 248.591 135.286 250.075 135.969 251.559C139.273 258.637 142.577 265.771 145.824 272.906C149.128 280.041 152.375 287.232 155.622 294.367C157.217 297.906 158.812 301.444 160.407 305.04C160.805 305.725 161.147 306.41 161.432 307.152Z" fill="black"/>
<path d="M77.2407 224.105C76.8419 224.334 76.4432 224.505 76.0444 224.733C75.7596 224.847 75.5318 224.905 75.3039 224.848C75.133 224.22 74.9621 223.535 74.7913 222.907C74.8482 222.85 74.9052 222.793 75.0191 222.736C75.5887 222.45 76.1014 222.165 76.671 221.879C76.8419 222.679 77.0128 223.421 77.2407 224.105Z" fill="black"/>
<path d="M108.912 207.325C109.083 207.268 109.254 207.211 109.368 207.154C109.368 207.325 109.14 207.496 108.969 207.382C108.969 207.382 108.969 207.382 108.912 207.325Z" fill="black"/>
<path d="M76.8419 144.998C76.1013 144.541 75.3039 144.084 74.5633 143.571C74.3925 142.772 74.2216 141.915 74.1076 141.116L74.0507 140.774C73.7659 139.176 73.4241 137.521 73.1393 135.922C72.8545 134.381 72.5696 132.84 72.2848 131.242C72.2848 131.071 72.2279 130.9 72.1709 130.786C72.057 130.044 71.8861 129.302 71.7722 128.56C71.7722 128.388 71.7152 128.274 71.7152 128.103C71.6582 127.646 71.5443 127.19 71.4874 126.79C71.4304 126.334 71.4874 125.991 71.4874 125.534C71.5443 124.964 72.2848 124.792 72.5696 125.306C72.9114 126.048 73.1393 126.847 73.3102 127.646C73.4811 128.445 73.6519 129.302 73.8228 130.101C74.1646 131.699 74.4494 133.297 74.7912 134.952C75.133 136.55 75.4178 138.148 75.7596 139.804C75.9305 140.546 76.0444 141.345 76.2153 142.144C76.3292 142.657 76.3862 143.057 76.4431 143.399C76.4431 143.514 76.5571 143.742 76.5571 143.856C76.614 143.913 76.671 143.97 76.7279 144.027C77.0697 144.313 77.0128 144.712 76.8419 144.998Z" fill="black"/>
<path d="M133.577 244.653C132.552 246.594 131.64 248.591 130.786 250.589C129.874 252.587 128.963 254.584 128.109 256.582C126.343 260.52 124.577 264.459 122.811 268.454C119.279 276.445 115.748 284.436 112.273 292.426C110.336 296.936 108.342 301.388 106.406 305.897C106.235 306.296 106.52 306.753 106.861 306.867C107.26 306.981 107.659 306.753 107.83 306.41C111.305 298.42 114.836 290.429 118.311 282.495C121.843 274.504 125.374 266.571 128.849 258.58C129.817 256.354 130.786 254.185 131.754 251.959C132.78 249.733 133.805 247.45 134.659 245.167C134.944 244.539 133.919 244.025 133.577 244.653Z" fill="white"/>
<path d="M325.029 58.6399C324.972 53.1605 324.915 47.6811 324.744 42.2017C324.744 41.9734 324.631 41.7451 324.517 41.6309C324.403 41.4597 324.289 41.4026 324.118 41.3456C323.947 41.2885 323.833 41.2885 323.719 41.2885C316.827 40.7748 309.82 41.0031 302.871 40.946C295.864 40.946 288.858 40.946 281.851 40.946C267.839 40.946 253.826 40.946 239.813 40.946C211.958 40.946 184.046 40.946 156.191 40.946C148.33 40.946 140.469 40.946 132.609 40.946C130.501 40.946 128.336 40.946 126.172 40.8889C125.488 41.4026 124.691 41.8022 123.893 42.0876C123.494 42.2017 123.267 42.4871 123.153 42.8296C122.811 42.8866 122.526 43.1149 122.355 43.4003C122.184 43.6286 122.127 43.9711 122.184 44.2565C122.583 45.6834 123.039 47.1674 123.438 48.5943C123.381 50.4208 123.779 52.1902 124.463 53.8454C124.52 54.1308 124.52 54.4732 124.577 54.7586C124.634 55.2723 124.805 55.786 124.976 56.2997C125.089 56.5851 125.146 56.8134 125.203 57.0988C125.26 57.3842 125.26 57.3842 125.203 57.7266C125.089 58.3545 125.773 59.0394 126.4 59.0394C126.969 59.0394 127.653 58.9252 128.279 58.6969C128.963 59.2677 129.703 59.7243 130.501 60.1239C144.685 60.1239 158.925 60.1239 173.109 60.1239C205.692 60.1239 238.275 60.1239 270.858 60.1239C280.029 60.1239 289.143 60.1239 298.314 60.1239C302.187 60.1239 306.061 60.1239 309.877 60.1239C310.333 60.1239 310.789 60.0668 311.187 60.0668C315.004 59.8956 318.763 59.7243 322.523 59.4389C323.32 59.3819 324.118 59.3248 324.915 59.2677C325.029 59.1536 325.029 58.9252 325.029 58.6399Z" fill="#4BD0A0"/>
<path d="M66.3608 120.283C33.6641 120.283 7.11938 93.6277 7.11938 60.9226C7.11938 28.1605 33.6641 1.56262 66.3608 1.56262C99.0006 1.56262 125.602 28.1605 125.602 60.9226C125.602 93.6277 99.0006 120.283 66.3608 120.283ZM66.3608 3.21785C34.5755 3.21785 8.77131 29.0737 8.77131 60.9226C8.77131 92.7144 34.5755 118.627 66.3608 118.627C98.0892 118.627 123.95 92.7715 123.95 60.9226C123.95 29.0737 98.0892 3.21785 66.3608 3.21785Z" fill="black"/>
<path d="M66.3608 110.409C39.1325 110.409 16.917 88.206 16.917 60.8662C16.917 33.5264 39.0756 11.3805 66.3608 11.3805C93.5891 11.3805 115.805 33.5835 115.805 60.9233C115.805 88.2631 93.5891 110.409 66.3608 110.409ZM66.3608 13.0358C40.0439 13.0358 18.5689 34.4967 18.5689 60.9233C18.5689 87.2928 39.987 108.811 66.3608 108.811C92.6777 108.811 114.153 87.3499 114.153 60.9233C114.153 34.4967 92.6777 13.0358 66.3608 13.0358Z" fill="black"/>
<path d="M93.1345 102.079C103.014 95.5749 110.424 85.618 113.641 73.99L113.641 73.9901L113.643 73.9798L113.9 72.9525L114.156 71.9251L114.156 71.9251L114.158 71.9173C114.963 68.4036 115.365 64.7195 115.365 60.9801C115.365 33.8687 93.42 11.8789 66.3607 11.8789C39.3014 11.8789 17.3567 33.8687 17.3567 60.9801C17.3567 88.0915 39.3014 110.081 66.3607 110.081C75.1509 110.081 83.4235 107.721 90.5462 103.692L90.5463 103.692L90.5557 103.687L90.5589 103.685C91.4107 103.173 92.272 102.655 93.1345 102.079ZM93.1345 102.079C93.1341 102.079 93.1338 102.079 93.1334 102.079L92.9054 101.733L93.1357 102.078C93.1353 102.078 93.1349 102.078 93.1345 102.079ZM89.2816 114.303L89.2815 114.302L89.2685 114.308C82.197 117.312 74.4481 119.012 66.3037 119.012C34.2925 119.012 8.33139 93.0003 8.33139 60.923C8.33139 28.8457 34.3495 2.77676 66.3607 2.77676C98.3714 2.77676 124.333 28.8452 124.333 60.923C124.333 63.8686 124.107 66.8132 123.655 69.6431C123.541 70.2717 123.427 70.9564 123.314 71.6374C122.522 75.7743 121.334 79.7402 119.752 83.5354C119.241 84.7291 118.732 85.8621 118.168 86.9932C113.813 95.7193 107.309 103.144 99.3331 108.699L99.3331 108.698L99.3259 108.704C98.9448 108.981 98.556 109.229 98.1474 109.488C97.89 109.652 97.6247 109.821 97.3485 110.005C95.4279 111.25 93.3942 112.382 91.361 113.344L91.3609 113.344L91.3526 113.348C90.6665 113.692 90.0005 114.025 89.2816 114.303Z" stroke="black" stroke-width="0.829283"/>
<path d="M47.1642 62.5781C48.0757 64.2334 48.4744 66.2311 48.1326 68.1146C47.7908 70.0552 46.7085 71.8246 45.1705 73.0803C43.6325 74.336 41.7528 75.078 39.7591 75.135C37.8223 75.1921 35.9425 74.5072 34.4615 73.2515C32.9805 71.9958 31.7843 70.2264 31.3855 68.2858C31.2146 67.3155 31.1577 66.3452 31.3855 65.3178C31.1007 64.2334 31.6134 63.1489 32.183 62.1786C33.3223 60.2951 35.202 58.9252 37.3097 58.2974C39.1325 57.7266 41.1831 57.7837 42.892 58.5257C44.7148 59.3818 46.1959 60.8087 47.1642 62.5781Z" fill="#4BD0A0"/>
<path d="M76.3862 87.5774C75.4748 89.2898 73.652 90.5455 71.8861 91.2304C68.3544 92.5431 63.7974 91.8582 61.6898 88.4907C60.8923 87.2921 60.5505 85.751 60.6644 84.3241C60.4366 84.1528 60.3227 83.8675 60.3796 83.525C60.7214 81.4132 62.2594 79.5867 63.9683 78.3881C65.6772 77.1895 67.7278 76.4475 69.8355 76.5616C73.3102 76.7328 76.1584 79.4155 77.0128 82.7259C77.3546 84.3241 77.1837 86.0935 76.3862 87.5774Z" fill="#4BD0A0"/>
<path d="M98.4879 44.9411C97.5195 48.9935 93.0764 50.9342 89.3169 51.5049C87.494 51.7903 85.5003 51.7903 83.7915 50.9912C81.7408 50.078 80.5446 48.2515 80.2598 46.0255C79.9749 43.7995 80.1458 41.2311 81.399 39.2905C81.5129 39.1192 81.6269 38.948 81.7408 38.8338C81.6838 36.5508 83.7915 34.7243 85.8421 34.0965C88.1206 33.4115 90.7979 33.8111 92.9055 34.7243C94.8423 35.5805 96.6081 36.9503 97.6334 38.8338C98.6588 40.7174 98.9436 42.9434 98.4879 44.9411Z" fill="#4BD0A0"/>
<path d="M18.8537 119.199C18.8537 141.345 18.8537 163.49 18.8537 185.636V243.569C18.8537 245.053 18.8537 246.48 18.8537 247.964C18.8537 249.334 18.5689 250.647 18.4549 252.017C18.398 252.53 17.6005 252.644 17.5435 252.074C17.3726 250.533 17.1448 249.049 17.1448 247.508V233.638C17.1448 227.417 17.1448 221.195 17.1448 214.974C17.1448 192.828 17.1448 170.682 17.1448 148.536C17.1448 137.463 17.1448 126.39 17.1448 115.317C17.1448 109.781 17.1448 104.245 17.1448 98.7081C17.1448 96.3109 17.1448 93.9136 17.1448 91.5164C17.3157 91.8589 17.5435 92.2013 17.7144 92.5438C18.0562 93.1146 18.4549 93.6853 18.8537 94.3132C18.8537 96.368 18.8537 98.4798 18.8537 100.535C18.7967 106.813 18.7967 113.034 18.8537 119.199Z" fill="black"/>
<path d="M37.8224 250.133C37.8224 251.046 37.8224 251.902 37.8224 252.815C37.4237 252.815 37.0249 252.815 36.6262 252.815V242.028C36.6262 220.224 36.6262 198.364 36.5692 176.561C36.5122 154.643 36.3414 132.668 36.7401 110.751C36.7401 110.18 37.5945 110.237 37.6515 110.808C37.8794 123.137 37.8794 135.465 37.8794 147.794C37.8794 169.597 37.8224 191.458 37.8224 213.261V246.194C37.8224 247.507 37.8224 248.82 37.8224 250.133Z" fill="black"/>
<path d="M34.5754 219.14C34.2906 226.503 34.2906 233.923 34.6324 241.286C34.6894 242.713 34.8033 244.311 33.9488 245.509C32.9805 246.879 31.4425 246.993 29.9614 247.165C28.3095 247.393 26.6006 247.564 24.9487 247.792C24.2082 247.907 23.4107 248.078 22.6702 247.792C21.9297 247.507 21.5879 246.708 21.474 245.909C20.7334 238.603 20.4486 231.183 20.5056 223.82C20.5056 220.167 20.6765 216.457 20.8474 212.804C20.9613 211.206 20.9613 209.437 21.9866 208.181C22.3284 207.781 22.7271 207.496 23.1828 207.325C23.2968 207.154 23.5246 207.039 23.7525 207.039C24.6069 206.982 25.4614 206.982 26.3158 206.982C28.0247 206.982 29.6766 206.925 31.3855 207.039C32.8096 207.097 34.0628 207.839 34.5754 209.38C35.0311 210.692 34.9742 212.119 34.8602 213.546C34.7463 215.43 34.6324 217.256 34.5754 219.14Z" fill="#4BD0A0"/>
<path d="M282.364 53.788C280.94 53.7309 279.516 53.788 278.035 53.788C277.237 53.788 276.44 53.788 275.699 53.8451C275.301 53.8451 274.902 53.9022 274.503 53.9592C274.105 54.0163 273.706 54.1875 273.25 54.3017C272.737 54.4158 272.623 55.272 273.193 55.3862C273.535 55.4432 273.877 55.6145 274.218 55.6715C274.56 55.7286 274.902 55.7857 275.244 55.8428C275.927 55.8998 276.668 55.8998 277.351 55.8998C278.775 55.8998 280.143 55.8998 281.567 55.8998C281.965 55.8998 282.421 55.9569 282.82 55.8428C283.105 55.7286 283.56 55.3862 283.674 55.1008C283.902 54.3017 282.934 53.788 282.364 53.788Z" fill="white"/>
<path d="M295.01 49.2792C294.497 49.2221 293.985 49.2792 293.472 49.4504C292.845 49.6217 292.276 49.7929 291.649 49.85C290.339 50.0783 289.029 50.0783 287.662 49.9071C286.75 49.7929 286.636 51.2769 287.605 51.334C287.491 51.6764 287.377 52.1331 287.32 52.5326C287.206 53.0463 287.206 53.6171 287.263 54.1308C287.377 55.2152 287.776 56.2426 288.972 56.4138C290.054 56.5851 291.193 56.528 292.276 56.5851C293.472 56.6421 294.611 56.5851 295.807 56.6421C296.149 56.6421 296.491 56.3568 296.548 56.0143C296.605 54.6444 296.605 53.2746 296.662 51.9048C296.605 50.7061 296.32 49.5075 295.01 49.2792ZM292.902 55.1011C291.934 55.044 290.966 55.044 289.94 54.9869C289.712 54.9869 289.143 55.044 288.972 54.8728C288.744 54.7015 288.744 54.1878 288.687 53.9024C288.63 53.4458 288.63 52.9892 288.573 52.5326C288.573 52.1331 288.63 51.7906 288.516 51.3911C289.371 51.4481 290.168 51.3911 291.023 51.2769C291.592 51.2198 292.219 51.1057 292.788 50.9915C293.301 50.8774 293.757 50.7061 294.269 50.592C294.554 50.5349 294.953 50.4778 295.124 50.8203C295.295 51.2198 295.181 51.7335 295.181 52.1331C295.181 53.1604 295.124 54.1878 295.124 55.1581C294.383 55.2152 293.643 55.1581 292.902 55.1011Z" fill="white"/>
<path d="M300.365 45.7973C297.118 45.4548 293.7 45.6261 290.51 46.5393C290.225 46.5964 289.997 46.8247 289.997 47.1671C289.997 48.0233 290.054 49.0507 290.51 49.7927C290.852 50.3064 291.535 50.021 291.478 49.4502C291.421 48.8795 291.307 48.3087 291.307 47.7379C294.042 47.1671 296.833 46.9388 299.624 47.1101C299.51 48.6511 299.396 50.2493 299.339 51.7904C299.339 52.1899 299.282 52.6465 299.225 53.0461C299.168 53.3315 299.225 53.3315 298.94 53.3315C298.086 53.3885 297.175 53.3315 296.263 53.2744C295.352 53.2744 295.238 54.7013 296.206 54.7013C297.175 54.7013 298.2 54.8155 299.168 54.7013C300.251 54.5872 300.535 53.7881 300.592 52.8178C300.706 50.7059 300.877 48.5941 300.991 46.4822C301.048 46.1398 300.763 45.8544 300.365 45.7973Z" fill="white"/>
<path d="M122 42.0001H324.5L323 237" stroke="black" stroke-width="1.5"/>
<path d="M315.687 53.9595C315.631 53.7883 315.517 53.6741 315.403 53.5029C315.232 53.3317 315.004 53.2175 314.776 53.0463C314.434 52.818 314.036 52.5326 313.694 52.3043C313.124 51.9047 312.555 51.4481 311.985 50.9915C312.213 50.7061 312.441 50.4778 312.725 50.1924C313.124 49.7358 313.466 49.2792 313.865 48.7655C314.263 48.2518 314.89 47.5669 314.719 46.8249C314.548 45.9688 313.409 45.5121 312.896 46.3112C312.782 46.4824 312.725 46.6537 312.725 46.8249C312.611 47.0532 312.441 47.2244 312.27 47.4528C311.985 47.7952 311.757 48.1377 311.472 48.4801C311.13 48.8797 310.789 49.2792 310.447 49.6787C309.535 48.8226 308.681 47.9664 307.713 47.1674C307.086 46.5966 306.004 47.5669 306.459 48.3089C307.143 49.3934 308.054 50.3066 308.966 51.1627C308.054 52.0189 307.086 52.818 306.061 53.6741C305.263 54.359 306.232 55.786 307.143 55.2152C308.339 54.4732 309.479 53.56 310.504 52.5326C311.13 53.0463 311.757 53.56 312.384 54.0166C312.782 54.302 313.124 54.5303 313.523 54.8157C313.694 54.9298 313.922 55.101 314.093 55.1581C314.263 55.2152 314.434 55.3294 314.605 55.3294C314.662 55.3294 315.061 55.2152 315.061 55.2152C315.46 55.101 315.687 54.7586 315.631 54.302C315.687 54.2449 315.687 54.0166 315.687 53.9595Z" fill="white"/>
<path d="M307 173C305 175 298 178.5 298 178.5L304.5 168C304.5 168 300.5 167.5 298 167C295.5 166.5 293.5 164.5 293.5 162V131.5C293.5 129 296.5 124.667 302.5 125C308.5 125.333 338 123 343.5 123C349 123 354 129.5 354 133.5V160C354 163.5 351.5 167 345 168C338.5 169 312 168 312 168L307 173Z" fill="white" stroke="black" stroke-width="1.5"/>
<path d="M46.5 62L80.5 45.5" stroke="black" stroke-width="1.5"/>
<path d="M47 71.5L61.5 80.5" stroke="black" stroke-width="1.5"/>
<path d="M126.5 60H323.5" stroke="black" stroke-width="1.5"/>
<path d="M318.988 139.569C319.303 139.3 319.339 138.826 319.069 138.512C318.8 138.197 318.326 138.161 318.012 138.431L318.988 139.569ZM317.692 153.184C318.07 153.354 318.514 153.186 318.684 152.808C318.854 152.43 318.686 151.986 318.308 151.816L317.692 153.184ZM309.196 146.975L308.708 146.406L309.196 146.975ZM309.436 148.646L309.128 149.33L309.436 148.646ZM318.012 138.431L308.708 146.406L309.684 147.545L318.988 139.569L318.012 138.431ZM309.128 149.33L317.692 153.184L318.308 151.816L309.744 147.962L309.128 149.33ZM308.708 146.406C307.734 147.24 307.959 148.804 309.128 149.33L309.744 147.962C309.577 147.887 309.545 147.664 309.684 147.545L308.708 146.406Z" fill="black"/>
<path d="M327.538 138.591C327.212 138.335 327.154 137.864 327.409 137.538C327.665 137.212 328.136 137.154 328.462 137.409L327.538 138.591ZM329.322 152.677C328.948 152.855 328.501 152.696 328.323 152.322C328.145 151.948 328.304 151.501 328.678 151.323L329.322 152.677ZM338.228 146.004L338.69 145.414L338.228 146.004ZM328.462 137.409L338.69 145.414L337.765 146.595L327.538 138.591L328.462 137.409ZM338.364 148.372L329.322 152.677L328.678 151.323L337.719 147.017L338.364 148.372ZM338.69 145.414C339.714 146.215 339.537 147.813 338.364 148.372L337.719 147.017C337.887 146.938 337.912 146.709 337.765 146.595L338.69 145.414Z" fill="black"/>
<path d="M18 252H83" stroke="black" stroke-width="1.5"/>
<path d="M72.5661 131C72.5661 131 61.0661 124 59.5661 124C58.0661 124 51.0661 132 50.5661 134C50.0661 136 53.0661 140.5 54.0661 142.5C55.0661 144.5 50.0661 150.5 50.0661 155C50.0661 159.5 52.0661 162.5 52.0661 166C52.0661 169.5 49.5661 172 50.0661 174.5C50.5661 177 52.5661 178 53.0661 180.5C53.5661 183 53 185 55.5 187C58 189 62.5 189.188 69.5 194C76.5 198.812 79 214 79 214L93 208L106.5 203C106.5 203 100.066 182.5 104.566 171.5C109.066 160.5 110.566 155.5 106.066 148C101.566 140.5 86.0661 137.5 86.0661 137.5" stroke="black" stroke-width="1.5" stroke-linecap="round" stroke-linejoin="bevel"/>
<path d="M54 142C55 144 58 147.5 58 147.5" stroke="black" stroke-width="1.5" stroke-linecap="round" stroke-linejoin="bevel"/>
<path d="M63.8437 130C63.8437 130 63.8437 131.5 63.8438 132.5C63.8438 133.5 62.3437 134 63.3437 135C64.3437 136 68.8437 139.5 73.3437 142.5C77.8437 145.5 83.3437 149 85.8437 149C88.3437 149 88.3437 146 88.3437 146" stroke="black" stroke-width="1.5" stroke-linecap="round" stroke-linejoin="bevel"/>
<path d="M78.7361 222.562C78.7361 222.562 73.9722 217.123 77.2361 215.062C80.5 213 106.236 202.062 108.236 203.062C110.236 204.062 111.236 208.062 111.236 208.062" stroke="black" stroke-width="1.5" stroke-linecap="round" stroke-linejoin="bevel"/>
</g>
<defs>
<clipPath id="clip0">
<rect width="386" height="307" fill="white"/>
</clipPath>
</defs>
</svg>
