<svg width="172" height="107" viewBox="0 0 172 107" fill="none" xmlns="http://www.w3.org/2000/svg">
<path d="M25.96 103.136L25.5949 104.067L25.6029 104.07L25.6109 104.073L25.96 103.136ZM13.144 94.064L12.3947 94.7262L13.144 94.064ZM4.504 77.936L3.54617 78.2233L3.54864 78.2316L3.55126 78.2398L4.504 77.936ZM4.504 28.112L3.55669 27.7914L3.55243 27.8046L4.504 28.112ZM13.144 12.848L13.8775 13.5278L13.8855 13.5189L13.144 12.848ZM25.96 4.064L26.3091 5.00108L26.3091 5.00108L25.96 4.064ZM57.64 4.064L57.2909 5.00108L57.2909 5.00108L57.64 4.064ZM70.456 12.848L69.7144 13.519L69.7226 13.5278L70.456 12.848ZM78.952 28.112L78.0003 28.4195L78.0048 28.4326L78.952 28.112ZM78.952 77.936L77.998 77.6362L77.9953 77.6448L78.952 77.936ZM70.456 94.064L71.2053 94.7262L71.2053 94.7262L70.456 94.064ZM57.64 103.136L57.9891 104.073L57.9971 104.07L58.0051 104.067L57.64 103.136ZM47.272 83.12L46.8063 82.2351L46.7962 82.2403L46.7864 82.2458L47.272 83.12ZM51.88 78.224L51.0074 77.7353L51.0007 77.7477L51.88 78.224ZM55.048 68.72L56.0295 68.9115L56.0303 68.9071L55.048 68.72ZM55.048 37.472L54.0694 37.678L54.0706 37.6833L55.048 37.472ZM51.88 28.688L51.0094 29.1801L51.0174 29.1941L51.0258 29.2079L51.88 28.688ZM47.272 24.08L46.7864 24.9542L46.8147 24.9699L46.8439 24.9837L47.272 24.08ZM36.184 24.08L36.6312 24.9744L36.6405 24.9698L36.6497 24.9649L36.184 24.08ZM31.576 28.688L30.7218 28.1681L30.7134 28.1819L30.7054 28.1959L31.576 28.688ZM28.552 37.472L29.5294 37.6833L29.5306 37.678L28.552 37.472ZM28.552 68.72L27.5697 68.9071L27.5705 68.9115L28.552 68.72ZM31.576 78.224L30.6888 78.6854L30.7 78.7069L30.7122 78.7279L31.576 78.224ZM36.184 83.12L35.6984 83.9942L35.7082 83.9996L35.7183 84.0049L36.184 83.12ZM41.8 104.872C36.2451 104.872 31.0844 103.978 26.3091 102.199L25.6109 104.073C30.6276 105.942 36.0269 106.872 41.8 106.872V104.872ZM26.3251 102.205C21.5837 100.346 17.4415 97.4168 13.8933 93.4018L12.3947 94.7262C16.1425 98.9672 20.5443 102.086 25.5949 104.067L26.3251 102.205ZM13.8933 93.4018C10.358 89.4013 7.53724 84.1574 5.45674 77.6322L3.55126 78.2398C5.69476 84.9626 8.63399 90.4707 12.3947 94.7262L13.8933 93.4018ZM5.46183 77.6487C3.48171 71.0482 2.48 63.0387 2.48 53.6H0.48C0.48 63.1693 1.49429 71.3837 3.54617 78.2233L5.46183 77.6487ZM2.48 53.6V50.72H0.48V53.6H2.48ZM2.48 50.72C2.48 41.9586 3.4806 34.5324 5.45557 28.4194L3.55243 27.8046C1.4954 34.1716 0.48 41.8174 0.48 50.72H2.48ZM5.45122 28.4326C7.52808 22.2964 10.3444 17.3397 13.8774 13.5278L12.4106 12.1682C8.64761 16.2283 5.70392 21.4476 3.55678 27.7914L5.45122 28.4326ZM13.8855 13.5189C17.4305 9.60081 21.5696 6.76679 26.3091 5.00108L25.6109 3.12692C20.5584 5.0092 16.1535 8.03119 12.4025 12.1771L13.8855 13.5189ZM26.3091 5.00108C31.0844 3.22206 36.2451 2.32799 41.8 2.32799V0.327991C36.0269 0.327991 30.6276 1.25793 25.6109 3.12692L26.3091 5.00108ZM41.8 2.32799C47.3549 2.32799 52.5156 3.22206 57.2909 5.00108L57.9891 3.12692C52.9724 1.25793 47.5731 0.327991 41.8 0.327991V2.32799ZM57.2909 5.00108C62.0304 6.76679 66.1695 9.60081 69.7145 13.5189L71.1975 12.1771C67.4465 8.03119 63.0416 5.0092 57.9891 3.12692L57.2909 5.00108ZM69.7226 13.5278C73.2522 17.336 76.0195 22.2878 78.0004 28.4194L79.9036 27.8046C77.8526 21.4562 74.9558 16.232 71.1894 12.1682L69.7226 13.5278ZM78.0048 28.4326C80.0722 34.5409 81.12 41.9623 81.12 50.72H83.12C83.12 41.8137 82.0558 34.1631 79.8992 27.7914L78.0048 28.4326ZM81.12 50.72V53.6H83.12V50.72H81.12ZM81.12 53.6C81.12 63.0353 80.071 71.0404 77.998 77.6362L79.906 78.2358C82.057 71.3916 83.12 63.1727 83.12 53.6H81.12ZM77.9953 77.6448C76.0107 84.1659 73.2387 89.4051 69.7067 93.4018L71.2053 94.7262C74.9693 90.4669 77.8613 84.9541 79.9087 78.2272L77.9953 77.6448ZM69.7067 93.4018C66.1585 97.4168 62.0163 100.346 57.2749 102.205L58.0051 104.067C63.0557 102.086 67.4575 98.9672 71.2053 94.7262L69.7067 93.4018ZM57.2909 102.199C52.5156 103.978 47.3549 104.872 41.8 104.872V106.872C47.5731 106.872 52.9724 105.942 57.9891 104.073L57.2909 102.199ZM41.8 85.56C43.8951 85.56 45.8857 85.0341 47.7576 83.9942L46.7864 82.2458C45.2023 83.1259 43.5449 83.56 41.8 83.56V85.56ZM47.7377 84.0049C49.7791 82.9305 51.4425 81.1314 52.7593 78.7003L51.0007 77.7477C49.8215 79.9246 48.4129 81.3895 46.8063 82.2351L47.7377 84.0049ZM52.7525 78.7126C54.1662 76.1881 55.2496 72.9085 56.0295 68.9115L54.0665 68.5285C53.3104 72.4035 52.2818 75.4599 51.0075 77.7354L52.7525 78.7126ZM56.0303 68.9071C56.8142 64.7919 57.2 59.6843 57.2 53.6H55.2C55.2 59.6117 54.8178 64.5841 54.0657 68.5329L56.0303 68.9071ZM57.2 53.6V50.72H55.2V53.6H57.2ZM57.2 50.72C57.2 45.3979 56.8135 40.9056 56.0254 37.2607L54.0706 37.6833C54.8185 41.1424 55.2 45.4821 55.2 50.72H57.2ZM56.0266 37.266C55.2446 33.5518 54.157 30.5055 52.7342 28.1681L51.0258 29.2079C52.291 31.2865 53.3154 34.0962 54.0695 37.678L56.0266 37.266ZM52.7506 28.1959C51.4273 25.8547 49.7535 24.1489 47.7001 23.1763L46.8439 24.9837C48.4385 25.7391 49.8367 27.1053 51.0094 29.1801L52.7506 28.1959ZM47.7576 23.2058C45.8857 22.1659 43.8951 21.64 41.8 21.64V23.64C43.5449 23.64 45.2023 24.0741 46.7864 24.9542L47.7576 23.2058ZM41.8 21.64C39.7059 21.64 37.675 22.1652 35.7183 23.1951L36.6497 24.9649C38.341 24.0748 40.0541 23.64 41.8 23.64V21.64ZM35.7368 23.1856C33.7928 24.1576 32.1314 25.8523 30.7218 28.1681L32.4302 29.2079C33.7086 27.1077 35.1192 25.7304 36.6312 24.9744L35.7368 23.1856ZM30.7054 28.1959C29.3893 30.5245 28.3536 33.5602 27.5735 37.266L29.5306 37.678C30.2864 34.0878 31.2667 31.2675 32.4466 29.1801L30.7054 28.1959ZM27.5746 37.2607C26.7865 40.9056 26.4 45.3979 26.4 50.72H28.4C28.4 45.4821 28.7815 41.1424 29.5294 37.6833L27.5746 37.2607ZM26.4 50.72V53.6H28.4V50.72H26.4ZM26.4 53.6C26.4 59.6843 26.7858 64.7919 27.5697 68.9071L29.5343 68.5329C28.7822 64.5841 28.4 59.6117 28.4 53.6H26.4ZM27.5705 68.9115C28.3489 72.9008 29.3809 76.1701 30.6888 78.6854L32.4632 77.7626C31.2751 75.4779 30.2911 72.4112 29.5335 68.5285L27.5705 68.9115ZM30.7122 78.7279C32.1162 81.1347 33.7677 82.9216 35.6984 83.9942L36.6696 82.2458C35.1443 81.3984 33.7238 79.9213 32.4398 77.7201L30.7122 78.7279ZM35.7183 84.0049C37.675 85.0348 39.7059 85.56 41.8 85.56V83.56C40.0541 83.56 38.341 83.1252 36.6497 82.2351L35.7183 84.0049ZM114.864 103.28L114.509 104.215L114.52 104.219L114.531 104.223L114.864 103.28ZM102.768 95.792L103.465 95.0744L103.465 95.0744L102.768 95.792ZM95.4243 84.56L94.4862 84.9067L94.4888 84.9134L95.4243 84.56ZM92.9763 70.16V69.16H91.9763V70.16H92.9763ZM118.896 70.16H119.896V69.16H118.896V70.16ZM122.064 80.816L121.314 81.4766L121.328 81.4926L121.342 81.5079L122.064 80.816ZM141.648 64.544L140.959 65.2681L140.967 65.2761L140.976 65.2839L141.648 64.544ZM123.36 61.664H122.36V62.664H123.36V61.664ZM123.36 42.656V41.656H122.36V42.656H123.36ZM140.496 25.52L139.809 26.246L139.828 26.2645L139.849 26.2819L140.496 25.52ZM120.336 35.6V36.6H121.336V35.6H120.336ZM94.4163 35.6H93.4163V36.6H94.4163V35.6ZM104.064 10.4L103.385 9.66641L103.379 9.67148L104.064 10.4ZM147.696 3.488L147.398 4.44248L147.41 4.44614L147.422 4.44952L147.696 3.488ZM159.504 9.24799L158.885 10.0335L158.893 10.0394L158.9 10.0451L159.504 9.24799ZM166.704 18.032L165.8 18.459L165.807 18.4743L165.815 18.4893L166.704 18.032ZM164.688 43.232L163.907 42.6073L163.907 42.6073L164.688 43.232ZM152.304 51.44L152.004 50.4861L148.74 51.5139L152.044 52.4055L152.304 51.44ZM165.984 59.792L165.196 60.4073L165.201 60.4132L165.205 60.419L165.984 59.792ZM168 87.728L167.101 87.29L167.101 87.29L168 87.728ZM160.224 97.376L159.6 96.5951L159.6 96.5951L160.224 97.376ZM147.984 103.712L148.272 104.67L148.28 104.667L148.289 104.664L147.984 103.712ZM131.856 104.872C125.512 104.872 119.964 104.019 115.197 102.337L114.531 104.223C119.556 105.997 125.337 106.872 131.856 106.872V104.872ZM115.219 102.345C110.53 100.563 106.619 98.136 103.465 95.0744L102.072 96.5096C105.445 99.784 109.598 102.349 114.509 104.215L115.219 102.345ZM103.465 95.0744C100.308 92.0104 97.9406 88.3913 96.3597 84.2066L94.4888 84.9134C96.1719 89.3687 98.7007 93.2376 102.072 96.5096L103.465 95.0744ZM96.3622 84.2133C94.7752 79.919 93.9763 75.2376 93.9763 70.16H91.9763C91.9763 75.4504 92.8093 80.369 94.4863 84.9066L96.3622 84.2133ZM92.9763 71.16H118.896V69.16H92.9763V71.16ZM117.896 70.16C117.896 74.9951 118.98 78.8246 121.314 81.4766L122.815 80.1554C120.925 78.0074 119.896 74.7329 119.896 70.16H117.896ZM121.342 81.5079C123.816 84.0893 127.64 85.272 132.576 85.272V83.272C127.912 83.272 124.728 82.1507 122.786 80.1241L121.342 81.5079ZM132.576 85.272C136.85 85.272 140.226 84.2287 142.499 81.9551L141.085 80.5409C139.327 82.2993 136.558 83.272 132.576 83.272V85.272ZM142.499 81.9551C144.747 79.7079 145.816 76.6443 145.816 72.896H143.816C143.816 76.2517 142.87 78.7561 141.085 80.5409L142.499 81.9551ZM145.816 72.896C145.816 69.0497 144.696 65.9632 142.321 63.8041L140.976 65.2839C142.824 66.9648 143.816 69.4463 143.816 72.896H145.816ZM142.338 63.8199C140.049 61.6404 136.474 60.664 131.856 60.664V62.664C136.263 62.664 139.215 63.6076 140.959 65.2681L142.338 63.8199ZM131.856 60.664H123.36V62.664H131.856V60.664ZM124.36 61.664V42.656H122.36V61.664H124.36ZM123.36 43.656H131.856V41.656H123.36V43.656ZM131.856 43.656C135.823 43.656 138.985 42.7785 141.16 40.8479C143.358 38.8972 144.376 36.0271 144.376 32.432H142.376C142.376 35.6529 141.474 37.8948 139.832 39.3521C138.168 40.8295 135.57 41.656 131.856 41.656V43.656ZM144.376 32.432C144.376 29.2213 143.329 26.615 141.144 24.7581L139.849 26.2819C141.504 27.689 142.376 29.6907 142.376 32.432H144.376ZM141.184 24.794C139.114 22.8329 136.191 21.928 132.576 21.928V23.928C135.874 23.928 138.231 24.7511 139.809 26.246L141.184 24.794ZM132.576 21.928C128.333 21.928 124.969 23.0281 122.677 25.4013C120.391 27.7679 119.336 31.2304 119.336 35.6H121.336C121.336 31.5216 122.322 28.6481 124.116 26.7907C125.903 24.9399 128.659 23.928 132.576 23.928V21.928ZM120.336 34.6H94.4163V36.6H120.336V34.6ZM95.4163 35.6C95.4163 25.0592 98.561 16.9474 104.749 11.1285L103.379 9.67148C96.7035 15.9486 93.4163 24.6368 93.4163 35.6H95.4163ZM104.744 11.1336C111.031 5.30917 120.019 2.32799 131.856 2.32799V0.327991C119.694 0.327991 110.154 3.39482 103.385 9.66643L104.744 11.1336ZM131.856 2.32799C137.73 2.32799 142.906 3.03871 147.398 4.44248L147.995 2.53352C143.271 1.05727 137.887 0.327991 131.856 0.327991V2.32799ZM147.422 4.44952C152.026 5.7652 155.839 7.63317 158.885 10.0335L160.123 8.4625C156.834 5.87083 152.774 3.89879 147.971 2.52647L147.422 4.44952ZM158.9 10.0451C161.945 12.3518 164.24 15.1547 165.8 18.459L167.609 17.605C165.905 13.9973 163.399 10.9442 160.108 8.4509L158.9 10.0451ZM165.815 18.4893C167.464 21.6951 168.296 25.2801 168.296 29.264H170.296C170.296 24.9919 169.401 21.0889 167.594 17.5747L165.815 18.4893ZM168.296 29.264C168.296 34.5361 166.821 38.9647 163.907 42.6073L165.469 43.8567C168.699 39.8193 170.296 34.9359 170.296 29.264H168.296ZM163.907 42.6073C160.972 46.2762 157.019 48.9072 152.004 50.4861L152.605 52.3938C157.957 50.7088 162.26 47.8678 165.469 43.8567L163.907 42.6073ZM152.044 52.4055C157.937 53.9956 162.288 56.6815 165.196 60.4073L166.773 59.1767C163.536 55.0305 158.768 52.1484 152.565 50.4745L152.044 52.4055ZM165.205 60.419C168.197 64.1361 169.736 69.0328 169.736 75.2H171.736C171.736 68.6952 170.107 63.3199 166.763 59.165L165.205 60.419ZM169.736 75.2C169.736 79.6726 168.852 83.6964 167.101 87.29L168.899 88.166C170.797 84.2716 171.736 79.9434 171.736 75.2H169.736ZM167.101 87.29C165.344 90.8963 162.848 93.9965 159.6 96.5951L160.849 98.1569C164.321 95.3795 167.008 92.0477 168.899 88.166L167.101 87.29ZM159.6 96.5951C156.35 99.1951 152.383 101.255 147.679 102.76L148.289 104.664C153.186 103.097 157.379 100.933 160.849 98.1569L159.6 96.5951ZM147.697 102.754C143.006 104.162 137.729 104.872 131.856 104.872V106.872C137.888 106.872 143.363 106.142 148.272 104.67L147.697 102.754Z" fill="#4BD0A0"/>
</svg>
