<svg width="175" height="107" viewBox="0 0 175 107" fill="none" xmlns="http://www.w3.org/2000/svg">
<path d="M25.96 103.136L25.5949 104.067L25.6029 104.07L25.6109 104.073L25.96 103.136ZM13.144 94.064L12.3947 94.7262L13.144 94.064ZM4.504 77.936L3.54617 78.2233L3.54864 78.2316L3.55126 78.2398L4.504 77.936ZM4.504 28.112L3.55669 27.7914L3.55243 27.8046L4.504 28.112ZM13.144 12.848L13.8775 13.5278L13.8855 13.5189L13.144 12.848ZM25.96 4.064L26.3091 5.00108L26.3091 5.00108L25.96 4.064ZM57.64 4.064L57.2909 5.00108L57.2909 5.00108L57.64 4.064ZM70.456 12.848L69.7144 13.519L69.7226 13.5278L70.456 12.848ZM78.952 28.112L78.0003 28.4195L78.0048 28.4326L78.952 28.112ZM78.952 77.936L77.998 77.6362L77.9953 77.6448L78.952 77.936ZM70.456 94.064L71.2053 94.7262L71.2053 94.7262L70.456 94.064ZM57.64 103.136L57.9891 104.073L57.9971 104.07L58.0051 104.067L57.64 103.136ZM47.272 83.12L46.8063 82.2351L46.7962 82.2403L46.7864 82.2458L47.272 83.12ZM51.88 78.224L51.0074 77.7353L51.0007 77.7477L51.88 78.224ZM55.048 68.72L56.0295 68.9115L56.0303 68.9071L55.048 68.72ZM55.048 37.472L54.0694 37.678L54.0706 37.6833L55.048 37.472ZM51.88 28.688L51.0094 29.1801L51.0174 29.1941L51.0258 29.2079L51.88 28.688ZM47.272 24.08L46.7864 24.9542L46.8147 24.9699L46.8439 24.9837L47.272 24.08ZM36.184 24.08L36.6312 24.9744L36.6405 24.9698L36.6497 24.9649L36.184 24.08ZM31.576 28.688L30.7218 28.1681L30.7134 28.1819L30.7054 28.1959L31.576 28.688ZM28.552 37.472L29.5294 37.6833L29.5306 37.678L28.552 37.472ZM28.552 68.72L27.5697 68.9071L27.5705 68.9115L28.552 68.72ZM31.576 78.224L30.6888 78.6854L30.7 78.7069L30.7122 78.7279L31.576 78.224ZM36.184 83.12L35.6984 83.9942L35.7082 83.9996L35.7183 84.0049L36.184 83.12ZM41.8 104.872C36.2451 104.872 31.0844 103.978 26.3091 102.199L25.6109 104.073C30.6276 105.942 36.0269 106.872 41.8 106.872V104.872ZM26.3251 102.205C21.5837 100.346 17.4415 97.4168 13.8933 93.4018L12.3947 94.7262C16.1425 98.9672 20.5443 102.086 25.5949 104.067L26.3251 102.205ZM13.8933 93.4018C10.358 89.4013 7.53724 84.1574 5.45674 77.6322L3.55126 78.2398C5.69476 84.9626 8.63399 90.4707 12.3947 94.7262L13.8933 93.4018ZM5.46183 77.6487C3.48171 71.0482 2.48 63.0387 2.48 53.6H0.48C0.48 63.1693 1.49429 71.3837 3.54617 78.2233L5.46183 77.6487ZM2.48 53.6V50.72H0.48V53.6H2.48ZM2.48 50.72C2.48 41.9586 3.4806 34.5324 5.45557 28.4194L3.55243 27.8046C1.4954 34.1716 0.48 41.8174 0.48 50.72H2.48ZM5.45122 28.4326C7.52808 22.2964 10.3444 17.3397 13.8774 13.5278L12.4106 12.1682C8.64761 16.2283 5.70392 21.4476 3.55678 27.7914L5.45122 28.4326ZM13.8855 13.5189C17.4305 9.60081 21.5696 6.76679 26.3091 5.00108L25.6109 3.12692C20.5584 5.0092 16.1535 8.03119 12.4025 12.1771L13.8855 13.5189ZM26.3091 5.00108C31.0844 3.22206 36.2451 2.32799 41.8 2.32799V0.327991C36.0269 0.327991 30.6276 1.25793 25.6109 3.12692L26.3091 5.00108ZM41.8 2.32799C47.3549 2.32799 52.5156 3.22206 57.2909 5.00108L57.9891 3.12692C52.9724 1.25793 47.5731 0.327991 41.8 0.327991V2.32799ZM57.2909 5.00108C62.0304 6.76679 66.1695 9.60081 69.7145 13.5189L71.1975 12.1771C67.4465 8.03119 63.0416 5.0092 57.9891 3.12692L57.2909 5.00108ZM69.7226 13.5278C73.2522 17.336 76.0195 22.2878 78.0004 28.4194L79.9036 27.8046C77.8526 21.4562 74.9558 16.232 71.1894 12.1682L69.7226 13.5278ZM78.0048 28.4326C80.0722 34.5409 81.12 41.9623 81.12 50.72H83.12C83.12 41.8137 82.0558 34.1631 79.8992 27.7914L78.0048 28.4326ZM81.12 50.72V53.6H83.12V50.72H81.12ZM81.12 53.6C81.12 63.0353 80.071 71.0404 77.998 77.6362L79.906 78.2358C82.057 71.3916 83.12 63.1727 83.12 53.6H81.12ZM77.9953 77.6448C76.0107 84.1659 73.2387 89.4051 69.7067 93.4018L71.2053 94.7262C74.9693 90.4669 77.8613 84.9541 79.9087 78.2272L77.9953 77.6448ZM69.7067 93.4018C66.1585 97.4168 62.0163 100.346 57.2749 102.205L58.0051 104.067C63.0557 102.086 67.4575 98.9672 71.2053 94.7262L69.7067 93.4018ZM57.2909 102.199C52.5156 103.978 47.3549 104.872 41.8 104.872V106.872C47.5731 106.872 52.9724 105.942 57.9891 104.073L57.2909 102.199ZM41.8 85.56C43.8951 85.56 45.8857 85.0341 47.7576 83.9942L46.7864 82.2458C45.2023 83.1259 43.5449 83.56 41.8 83.56V85.56ZM47.7377 84.0049C49.7791 82.9305 51.4425 81.1314 52.7593 78.7003L51.0007 77.7477C49.8215 79.9246 48.4129 81.3895 46.8063 82.2351L47.7377 84.0049ZM52.7525 78.7126C54.1662 76.1881 55.2496 72.9085 56.0295 68.9115L54.0665 68.5285C53.3104 72.4035 52.2818 75.4599 51.0075 77.7354L52.7525 78.7126ZM56.0303 68.9071C56.8142 64.7919 57.2 59.6843 57.2 53.6H55.2C55.2 59.6117 54.8178 64.5841 54.0657 68.5329L56.0303 68.9071ZM57.2 53.6V50.72H55.2V53.6H57.2ZM57.2 50.72C57.2 45.3979 56.8135 40.9056 56.0254 37.2607L54.0706 37.6833C54.8185 41.1424 55.2 45.4821 55.2 50.72H57.2ZM56.0266 37.266C55.2446 33.5518 54.157 30.5055 52.7342 28.1681L51.0258 29.2079C52.291 31.2865 53.3154 34.0962 54.0695 37.678L56.0266 37.266ZM52.7506 28.1959C51.4273 25.8547 49.7535 24.1489 47.7001 23.1763L46.8439 24.9837C48.4385 25.7391 49.8367 27.1053 51.0094 29.1801L52.7506 28.1959ZM47.7576 23.2058C45.8857 22.1659 43.8951 21.64 41.8 21.64V23.64C43.5449 23.64 45.2023 24.0741 46.7864 24.9542L47.7576 23.2058ZM41.8 21.64C39.7059 21.64 37.675 22.1652 35.7183 23.1951L36.6497 24.9649C38.341 24.0748 40.0541 23.64 41.8 23.64V21.64ZM35.7368 23.1856C33.7928 24.1576 32.1314 25.8523 30.7218 28.1681L32.4302 29.2079C33.7086 27.1077 35.1192 25.7304 36.6312 24.9744L35.7368 23.1856ZM30.7054 28.1959C29.3893 30.5245 28.3536 33.5602 27.5735 37.266L29.5306 37.678C30.2864 34.0878 31.2667 31.2675 32.4466 29.1801L30.7054 28.1959ZM27.5746 37.2607C26.7865 40.9056 26.4 45.3979 26.4 50.72H28.4C28.4 45.4821 28.7815 41.1424 29.5294 37.6833L27.5746 37.2607ZM26.4 50.72V53.6H28.4V50.72H26.4ZM26.4 53.6C26.4 59.6843 26.7858 64.7919 27.5697 68.9071L29.5343 68.5329C28.7822 64.5841 28.4 59.6117 28.4 53.6H26.4ZM27.5705 68.9115C28.3489 72.9008 29.3809 76.1701 30.6888 78.6854L32.4632 77.7626C31.2751 75.4779 30.2911 72.4112 29.5335 68.5285L27.5705 68.9115ZM30.7122 78.7279C32.1162 81.1347 33.7677 82.9216 35.6984 83.9942L36.6696 82.2458C35.1443 81.3984 33.7238 79.9213 32.4398 77.7201L30.7122 78.7279ZM35.7183 84.0049C37.675 85.0348 39.7059 85.56 41.8 85.56V83.56C40.0541 83.56 38.341 83.1252 36.6497 82.2351L35.7183 84.0049ZM136.752 84.416H137.752V83.416H136.752V84.416ZM91.5363 84.416H90.5363V85.416H91.5363V84.416ZM91.5363 66.704L90.7321 66.1096L90.5363 66.3745V66.704H91.5363ZM138.48 3.19999V2.19999H137.976L137.676 2.60555L138.48 3.19999ZM162.672 3.19999H163.672V2.19999H162.672V3.19999ZM162.672 63.104H161.672V64.104H162.672V63.104ZM173.616 63.104H174.616V62.104H173.616V63.104ZM173.616 84.416V85.416H174.616V84.416H173.616ZM162.672 84.416V83.416H161.672V84.416H162.672ZM162.672 104V105H163.672V104H162.672ZM136.752 104H135.752V105H136.752V104ZM136.752 63.104V64.104H137.752V63.104H136.752ZM136.752 31.856H137.752V28.7023L135.935 31.2798L136.752 31.856ZM114.72 63.104L113.903 62.5278L112.792 64.104H114.72V63.104ZM136.752 83.416H91.5363V85.416H136.752V83.416ZM92.5363 84.416V66.704H90.5363V84.416H92.5363ZM92.3404 67.2984L139.284 3.79444L137.676 2.60555L90.7321 66.1096L92.3404 67.2984ZM138.48 4.19999H162.672V2.19999H138.48V4.19999ZM161.672 3.19999V63.104H163.672V3.19999H161.672ZM162.672 64.104H173.616V62.104H162.672V64.104ZM172.616 63.104V84.416H174.616V63.104H172.616ZM173.616 83.416H162.672V85.416H173.616V83.416ZM161.672 84.416V104H163.672V84.416H161.672ZM162.672 103H136.752V105H162.672V103ZM137.752 104V84.416H135.752V104H137.752ZM137.752 63.104V31.856H135.752V63.104H137.752ZM135.935 31.2798L113.903 62.5278L115.538 63.6802L137.57 32.4322L135.935 31.2798ZM114.72 64.104H136.752V62.104H114.72V64.104Z" fill="#4BD0A0"/>
</svg>
